<?xml version="1.0" encoding="UTF-8"?>
<svg width="74px" height="95px" viewBox="0 0 74 95" version="1.1" xmlns="http://www.w3.org/2000/svg" xmlns:xlink="http://www.w3.org/1999/xlink">
    <title>Group 9</title>
    <g id="------⌙-Startseite" stroke="none" stroke-width="1" fill="none" fill-rule="evenodd">
        <g id="Group-9">
            <path d="M50,53.8682687 L50,32.1674371 C50,28.1850851 46.8260897,25 42.8577098,25 L7.14229023,25 C3.17391028,25 0,28.1850851 0,32.1674371 L0,53.872251 C0,57.356809 2.48023747,60.2424213 5.7549446,60.9425187 L5.7549446,67.312689 C5.7549446,68.008824 6.05334693,68.806071 6.64628242,69.303865 C7.14232992,69.801659 7.83600273,70 8.52967555,70 C9.22334836,70 9.91702118,69.700547 10.4130687,69.202753 L18.5474539,61.0397279 L43.051208,61.0397279 C46.7250349,61.1369571 50,57.85076 50,53.868408 L50,53.8682687 Z M26.8831947,53.1721336 C26.8831947,53.7710395 26.3871472,54.2688734 25.7903029,54.2688734 L22.9148148,54.2688734 C22.3180101,54.2688734 21.8219229,53.7710794 21.8219229,53.1721336 L21.8219229,51.2821094 C21.8219229,50.6832035 22.3179704,50.1853696 22.9148148,50.1853696 L25.7903029,50.1853696 C26.3871075,50.1853696 26.8831947,50.6831636 26.8831947,51.2821094 L26.8831947,53.1721336 Z M31.4445498,42.0225437 C30.6501,43.1192834 29.758782,43.9125679 28.5690617,44.5115136 C27.8753691,44.9081957 27.4761699,45.4059897 27.2785446,45.9037439 C27.0808994,46.2031969 26.9801422,46.7009909 26.9801422,47.1988048 C26.9801422,47.5954868 26.5848519,47.8949398 26.1856924,47.8949398 L22.6125631,47.8949398 C22.1165156,47.8949398 21.8181133,47.4982577 21.8181133,47.0004637 C21.9188704,46.0048757 22.1165156,45.2076089 22.5118059,44.7098149 C23.0078534,44.0136798 23.8991516,43.2164329 25.1896687,42.2208449 C25.8833614,41.8241628 26.379389,41.2252569 26.7786081,40.6263111 C27.1738984,40.0274052 27.3754127,39.2340809 27.3754127,38.436814 C27.3754127,37.5423379 27.1777675,36.943432 26.6817201,36.3444863 C26.1856726,35.8466923 25.5888282,35.5472393 24.6975301,35.5472393 C24.0038374,35.5472393 23.4070129,35.7455804 23.0117623,36.1461452 C22.7133599,36.4455982 22.5157148,36.7450512 22.4149576,37.1417332 C22.3142005,37.6395272 21.818153,37.9389802 21.2252373,37.9389802 L17.9505302,37.8378683 C17.5552398,37.8378683 17.2568375,37.4411862 17.2568375,37.0406213 C17.3575947,35.2477665 18.0512873,33.9527056 19.2410275,33.0582693 C20.6283731,31.9615296 22.4149378,31.4637356 24.6975499,31.4637356 C27.0769905,31.4637356 28.964352,32.0626415 30.3516977,33.2565905 C31.7390433,34.4504996 32.4366845,36.1422027 32.4366845,38.2345304 C32.5374417,39.832947 32.1421513,40.9257044 31.4445895,42.0224441 L31.4445498,42.0225437 Z" id="Fill-1" fill="#00789A"></path>
            <path d="M66.4558965,0 L30.2419788,0 C26.2182102,0 23,3.17797256 23,7.15143162 L23,19.7661708 L43.0162371,19.7661708 C49.9556285,19.7661708 55.5905141,25.3306028 55.5905141,32.1832303 L55.5905141,36.4554935 L63.4376677,44.2045334 C63.9406388,44.7012157 64.6439935,45 65.3473483,45 C66.0507232,45 66.7540578,44.7012157 67.2570289,44.3054195 C67.76,43.8087371 68.1608075,43.1141765 68.1608075,42.31869 L68.1608075,35.9627448 C71.4812214,35.2681643 73.9960768,32.3850423 73.9960768,28.9082656 L74,7.15159055 C73.7995962,3.17813149 70.4792024,0 66.4554338,0 L66.4558965,0 Z" id="Fill-2" fill="#B7E2EB"></path>
            <path d="M66.6412144,50 L55.6573355,50 L55.6573355,53.8728752 C55.6573355,60.7261078 50.0115936,66.2910312 43.0588325,66.2910312 L23,66.2910312 L23,78.9068844 C23,82.8806943 26.2244105,86.0589475 30.2559314,86.0589475 L55.1495655,86.0589475 L63.4133771,94.2044631 C63.9173173,94.7011894 64.6220271,95 65.326737,95 C66.0314469,95 66.7361567,94.7011894 67.2400968,94.3053582 C67.744037,93.8086319 68.1456168,93.1140099 68.1456168,92.3184532 L68.1456168,85.9619468 C71.4724279,85.2673049 73.9921285,82.3839283 73.9921285,78.9068446 L74,57.1522221 C74,53.1784121 70.6731889,50 66.6416679,50 L66.6412144,50 Z" id="Fill-3" fill="#B7E2EB"></path>
        </g>
    </g>
</svg>